<?xml version="1.0" encoding="UTF-8"?>
<svg version="1.1" xmlns="http://www.w3.org/2000/svg" width="256" height="256">
<path d="M0 0 C4.77446362 1.90978545 7.70984599 4.09227724 11.4375 7.4375 C16.1864098 11.60850014 20.99688014 15.63748412 26 19.5 C31.46331405 23.73230652 36.73837352 28.14241974 41.96533203 32.66235352 C47.81843426 37.72207898 53.80471005 42.60708176 59.8203125 47.47216797 C61.83927771 49.10553898 63.85740869 50.7399322 65.875 52.375 C66.56045898 52.93034424 67.24591797 53.48568848 67.95214844 54.05786133 C72.22286888 57.52769536 76.44198699 61.05014413 80.625 64.625 C85.58433849 68.86063846 90.6622689 72.91729506 95.80957031 76.92163086 C101.65412367 81.4795593 107.33714014 86.21872089 113 91 C117.03805866 89.63733356 119.54368118 87.8590849 122.625 84.9375 C127.90235223 80.05106275 133.40709583 75.51825078 139 71 C140.83437625 69.50127558 142.66771225 68.00127702 144.5 66.5 C148.16666667 63.5 151.83333333 60.5 155.5 57.5 C156.41007813 56.75492188 157.32015625 56.00984375 158.2578125 55.2421875 C160.06324411 53.7659514 161.87049141 52.29193264 163.6796875 50.8203125 C168.6050767 46.80861869 173.48066053 42.74821808 178.3125 38.625 C182.7708371 34.82411353 187.30911896 31.15403072 191.9375 27.5625 C196.82245902 23.77065011 201.57244044 19.85742313 206.25 15.8125 C210.32353296 12.29516748 214.39890113 8.78606693 218.5625 5.375 C219.30628906 4.76398437 220.05007812 4.15296875 220.81640625 3.5234375 C223.12967228 1.90953097 225.37506388 1.00485624 228 0 C228.38367298 6.73843435 228.64429291 13.47401914 228.82397461 20.22094727 C228.89893102 22.50977743 229.00094919 24.79790078 229.1315918 27.08422852 C230.24637571 47.11099358 230.24637571 47.11099358 224.78759766 53.32470703 C221.71394093 56.21090787 218.40522548 58.59409604 214.8347168 60.82611084 C212.21034357 62.50523826 209.87350907 64.48782756 207.5 66.5 C206.63117188 67.20382813 205.76234375 67.90765625 204.8671875 68.6328125 C201.40409887 71.49198377 198.01229451 74.42676746 194.625 77.375 C185.95800565 84.91857635 177.23895515 92.38868713 168.3125 99.625 C163.91417214 103.20222179 159.70701146 106.94597541 155.515625 110.76171875 C152.09234677 113.80758587 148.53684698 116.67526477 144.9765625 119.55859375 C141.05346254 122.77635947 137.20924264 126.0811183 133.36376953 129.39086914 C127.2740773 134.63136429 121.14005926 139.81868753 115 145 C111.57326304 143.47260916 108.94158718 141.45668829 106.0625 139.0625 C105.09441406 138.25941406 104.12632813 137.45632812 103.12890625 136.62890625 C99.3528977 133.4633544 95.59328545 130.27838545 91.83813477 127.08813477 C88.42115068 124.18867644 84.97575444 121.32910245 81.5 118.5 C77.46016705 115.21176388 73.46912329 111.87273558 69.5 108.5 C65.50836427 105.10883951 61.49613862 101.74864834 57.4375 98.4375 C51.59107073 93.66627612 45.79716048 88.83096707 40 84 C39.67 129.21 39.34 174.42 39 221 C26.13 221 13.26 221 0 221 C0 148.07 0 75.14 0 0 Z " fill="#FCFCFC" transform="translate(15,17)"/>
<path d="M0 0 C0.99 0.495 0.99 0.495 2 1 C2.13655628 8.36548656 2.18613109 15.72799136 2.17700195 23.09472656 C2.1839513 25.59713793 2.21036456 28.09957757 2.25708008 30.6015625 C2.64589358 52.54986611 2.64589358 52.54986611 -1.34423828 57.77514648 C-4.11610748 60.30704821 -6.7554591 62.13366629 -10 64 C-11.77128583 65.41118842 -13.52441647 66.84577994 -15.25 68.3125 C-16.15234375 69.04082031 -17.0546875 69.76914063 -17.984375 70.51953125 C-21.54669979 73.44968183 -25.02476011 76.46757153 -28.5 79.5 C-33.75242023 84.08181407 -39.06233742 88.55651022 -44.5 92.91796875 C-47.80265498 95.6684611 -50.8796651 98.63723419 -53.9296875 101.6640625 C-56 103 -56 103 -58.46875 102.9609375 C-61.54832735 101.79183869 -63.25393631 100.28383392 -65.625 98 C-69.07974779 94.76435864 -72.56577403 91.659877 -76.25 88.6875 C-80.564515 85.19566795 -84.79697561 81.62410327 -89 78 C-93.1915705 74.38969243 -97.40390865 70.81392346 -101.6875 67.3125 C-102.50114014 66.61825928 -103.31478027 65.92401855 -104.15307617 65.20874023 C-106.8883543 62.93599353 -106.8883543 62.93599353 -109.90087891 61.56152344 C-113.46368042 59.53888819 -116.10562995 57.64606013 -118 54 C-119.91692186 45.1991753 -119.02749199 35.87001692 -118.6875 26.9375 C-118.63228365 24.42523684 -118.58210048 21.9128577 -118.53710938 19.40039062 C-118.41629185 13.26438498 -118.23261174 7.13273104 -118 1 C-114.8406393 1.71047593 -113.10253878 2.48389739 -110.6796875 4.66015625 C-110.06730225 5.2022876 -109.45491699 5.74441895 -108.82397461 6.30297852 C-108.18081299 6.88362061 -107.53765137 7.4642627 -106.875 8.0625 C-105.52081378 9.26186632 -104.1653456 10.45978676 -102.80859375 11.65625 C-101.82415283 12.52636719 -101.82415283 12.52636719 -100.81982422 13.4140625 C-98.57875728 15.36710393 -96.27519659 17.2265719 -93.9375 19.0625 C-89.8864028 22.25223434 -85.96607701 25.57066483 -82.0625 28.9375 C-74.50452254 35.45543582 -66.79906185 41.77187217 -59 48 C-55.60256975 46.48133302 -52.98381716 44.49720998 -50.125 42.125 C-49.155625 41.320625 -48.18625 40.51625 -47.1875 39.6875 C-42.6098599 35.84045583 -38.07509363 31.9434214 -33.54296875 28.04296875 C-28.60464732 23.79528391 -23.62572782 19.59590788 -18.6484375 15.39404297 C-16.90903954 13.92307698 -15.17295844 12.44826752 -13.4375 10.97265625 C-12.85170166 10.47515869 -12.26590332 9.97766113 -11.66235352 9.46508789 C-10.54490891 8.51593218 -9.42816435 7.56595146 -8.31225586 6.61499023 C-5.60415777 4.31696204 -2.87036225 2.09254226 0 0 Z " fill="#FCFCFC" transform="translate(187,135)"/>
<path d="M0 0 C0 49.17 0 98.34 0 149 C-12.87 149 -25.74 149 -39 149 C-39.2488037 133.91797197 -39.45121941 118.83700241 -39.56993389 103.75340462 C-39.62653368 96.74891554 -39.70361893 89.74579667 -39.82983398 82.7421875 C-39.95165136 75.9793495 -40.01518008 69.21793358 -40.04364967 62.45406723 C-40.0639294 59.8775585 -40.10353378 57.30112506 -40.16303062 54.72522354 C-40.63411378 33.4791432 -40.63411378 33.4791432 -36.67349243 28.29656982 C-33.89920048 25.73413162 -31.25220762 23.89762815 -28 22 C-26.12512106 20.50477526 -24.26805271 18.98667554 -22.4375 17.4375 C-21.08591797 16.34695312 -21.08591797 16.34695312 -19.70703125 15.234375 C-16.13008151 12.28197204 -12.70505377 9.17905438 -9.2890625 6.04296875 C-2.51816444 0 -2.51816444 0 0 0 Z " fill="#FCFCFC" transform="translate(243,89)"/>
</svg>
